<svg width="29" height="28" viewBox="0 0 29 28" fill="none" xmlns="http://www.w3.org/2000/svg">
<ellipse cx="14.5" cy="14" rx="14.5" ry="14" fill="#3E3E3E"/>
<path d="M15.2812 7.33888C15.2812 6.59945 14.7146 6 14.0156 6C13.3166 6 12.75 6.59945 12.75 7.33888V7.65634C12.75 10.6853 10.2946 13.1407 7.26562 13.1407C6.56665 13.1407 6 13.7402 6 14.4796C6 15.219 6.56665 15.8185 7.26562 15.8185C10.2946 15.8185 12.75 18.2739 12.75 21.3029V21.6203C12.75 22.3597 13.3166 22.9592 14.0156 22.9592C14.7146 22.9592 15.2812 22.3597 15.2812 21.6203V21.3029C15.2812 18.2739 17.7367 15.8185 20.7656 15.8185C21.4646 15.8185 22.0312 15.219 22.0312 14.4796C22.0312 13.7402 21.4646 13.1407 20.7656 13.1407C17.7367 13.1407 15.2812 10.6853 15.2812 7.65634V7.33888Z" fill="#9C9DA1"/>
</svg>
